<svg class="svg-standalone-icon" width="342.716" viewBox="839.842 422.866 342.716 500.001" height="500" fill="white">
    <g fill-rule="evenodd">
        <path d="M1150.238 455.18c21.548 21.548 32.322 47.537 32.322 77.973 0 25.604-9.053 47.457-27.159 65.563-9.071 9.068-19.114 15.87-30.126 20.401 11.344 15.569 17.018 33.484 17.018 53.752 0 25.6-9.053 47.453-27.159 65.559-18.102 18.102-39.955 27.152-65.555 27.152h-15.359c17.455 17.907 26.185 39.437 26.185 64.577 0 25.6-9.053 47.453-27.155 65.559-18.106 18.102-39.955 27.152-65.559 27.152-35.278 0-65.404-12.487-90.383-37.47-24.975-24.975-37.466-55.101-37.466-90.379V690.443c0-5.95.463-11.803 1.39-17.576a110.669 110.669 0 0 1-1.39-17.573V550.718c0-35.278 12.491-65.404 37.47-90.383 24.975-24.975 55.101-37.466 90.383-37.466h104.576c30.435 0 56.425 10.774 77.969 32.314zm-14.992 14.995c-17.407-17.404-38.4-26.107-62.978-26.107H967.692c-29.424 0-54.553 10.421-75.391 31.255-20.838 20.842-31.255 45.971-31.255 75.391V655.29c0 5.339.456 10.579 1.375 15.712a10.57 10.57 0 0 1 0 3.729 89.173 89.173 0 0 0-1.375 15.709v104.576c0 29.424 10.417 54.553 31.255 75.388 20.838 20.842 45.964 31.259 75.388 31.259 19.746 0 36.602-6.983 50.564-20.945 13.966-13.962 20.948-30.818 20.948-50.564s-6.986-36.605-20.948-50.567a77.579 77.579 0 0 0-9.748-8.303 10.505 10.505 0 0 1-3.265-3.776 10.572 10.572 0 0 1-1.177-4.85v-7.681a10.539 10.539 0 0 1 1.25-4.997 10.502 10.502 0 0 1 2.629-3.199 10.653 10.653 0 0 1 5.685-2.353 9.753 9.753 0 0 1 1.041-.051h34.91c19.746 0 36.598-6.983 50.56-20.945 13.966-13.962 20.948-30.818 20.948-50.564s-6.983-36.605-20.945-50.567a75.28 75.28 0 0 0-.993-.974 10.601 10.601 0 0 1 5.346-18.029c13.521-2.629 25.49-9.156 35.914-19.577 13.962-13.966 20.945-30.821 20.945-50.567 0-24.581-8.704-45.574-26.107-62.978zm-167.558 18.032h104.576c24.784 0 44.949 20.161 44.949 44.945a27.372 27.372 0 0 1-52.935 9.796h-96.59c-4.21 0-7.762 3.556-7.762 7.766v94.781h89.648a27.372 27.372 0 0 1 0 54.741h-89.648v94.781c0 4.21 3.552 7.766 7.762 7.766a27.372 27.372 0 0 1 0 54.741c-34.465 0-62.503-28.042-62.503-62.507V690.441c0-6.233 1.28-12.171 3.585-17.576a44.666 44.666 0 0 1-3.585-17.573V550.716c0-34.465 28.038-62.507 62.503-62.507z" />
    </g>
</svg>
