<svg xmlns="http://www.w3.org/2000/svg" viewBox="190.673 129.918 240 271.133" width="240" height="271.133"><g data-paper-data="{&amp;quot;isGlobalGroup&amp;quot;:true,&amp;quot;bounds&amp;quot;:{&amp;quot;x&amp;quot;:168.77875909204604,&amp;quot;y&amp;quot;:115.00000000000003,&amp;quot;width&amp;quot;:212.44248181590794,&amp;quot;height&amp;quot;:239.99999999999997}}" fill="#8bb8e8" fill-rule="none" stroke-miterlimit="10" font-family="none" font-weight="none" font-size="none" text-anchor="none" style="mix-blend-mode:normal"><g data-paper-data="{&amp;quot;isPrimaryText&amp;quot;:true}" fill-rule="nonzero"><path d="M220.854 354.324h-24.426c-3.197 0 -5.755 2.558 -5.755 5.626v35.297c0 2.942 2.301 5.499 5.115 5.755h0.639c3.069 0 5.626 -2.558 5.626 -5.755v-24.17c0 -2.942 2.431 -5.371 5.499 -5.371h13.3c3.069 0 5.627 -2.558 5.627 -5.755 0 -3.069 -2.558 -5.627 -5.626 -5.627zm5.372 -35.425h-29.797c-3.197 0 -5.755 2.685 -5.755 5.755 0 3.069 2.558 5.755 5.755 5.755h29.797c3.197 0 5.755 -2.685 5.755 -5.755 0 -3.069 -2.558 -5.755 -5.755 -5.755z" data-paper-data="{&amp;quot;glyphName&amp;quot;:&amp;quot;F&amp;quot;,&amp;quot;glyphIndex&amp;quot;:0,&amp;quot;firstGlyphOfWord&amp;quot;:true,&amp;quot;word&amp;quot;:1}" style="fill:#3b0dca"/><path d="M280.321 339.873c0 -7.547 -4.22 -14.707 -10.87 -18.288 -6.778 -3.452 -15.346 -3.197 -21.485 1.279 -2.685 1.918 -4.988 4.348 -6.522 7.289 -1.535 2.942 -2.429 6.267 -2.429 9.72 0 3.069 2.557 5.626 5.754 5.626 3.069 0 5.627 -2.557 5.627 -5.626 0 -0.512 0 -0.896 0.128 -1.279 0.128 -0.768 0.384 -1.535 0.639 -2.302 0.256 -0.767 0.768 -1.407 1.151 -2.174l1.663 -1.663c0.639 -0.384 1.407 -0.768 2.045 -1.151 0.768 -0.255 1.664 -0.511 2.431 -0.639a7.743 7.743 0 0 1 2.429 0c0.768 0.129 1.663 0.384 2.43 0.639 0.639 0.384 1.408 0.768 2.047 1.152l1.662 1.661c0.384 0.768 0.896 1.408 1.152 2.175 0.254 0.768 0.511 1.535 0.638 2.302 0.128 0.384 0.128 0.767 0.128 1.279v37.726c0 1.279 0 2.686 -0.128 3.965 -0.128 0.767 -0.384 1.662 -0.639 2.429 -0.255 0.639 -0.768 1.408 -1.151 2.047l-1.662 1.662c-0.639 0.384 -1.408 0.768 -2.047 1.152 -0.767 0.255 -1.662 0.511 -2.429 0.638a7.743 7.743 0 0 1 -2.43 0c-0.768 -0.128 -1.663 -0.384 -2.43 -0.639 -0.639 -0.384 -1.407 -0.768 -2.046 -1.151l-1.663 -1.662c-0.384 -0.639 -0.895 -1.408 -1.151 -2.047 -0.255 -0.895 -0.512 -1.662 -0.639 -2.429 -0.255 -2.302 -0.128 -4.605 -0.128 -6.906v-18.544c0 -3.068 -2.558 -5.626 -5.626 -5.626 -3.197 0 -5.756 2.558 -5.756 5.626v19.183c0 3.071 -0.128 6.139 0.384 9.208 0.639 3.709 2.558 7.034 4.988 9.72 2.429 2.813 5.755 4.731 9.207 5.882 7.29 2.302 15.601 0 20.846 -5.372 3.965 -3.964 5.882 -9.335 5.882 -14.834z" data-paper-data="{&amp;quot;glyphName&amp;quot;:&amp;quot;O&amp;quot;,&amp;quot;glyphIndex&amp;quot;:1,&amp;quot;word&amp;quot;:1}" style="fill:#3b0dca"/><path d="M292.982 350.231c0.512 0.896 1.151 1.535 1.791 2.175 1.407 1.407 2.813 2.685 4.093 4.092 0.639 0.639 1.279 1.279 1.918 1.791 2.174 2.174 5.882 2.302 8.056 0 2.175 -2.175 2.175 -5.882 0 -8.057 -2.046 -2.046 -4.22 -4.092 -6.267 -6.139 -0.128 -0.384 -0.384 -0.767 -0.639 -1.15 -0.255 -0.639 -0.384 -1.535 -0.511 -2.302 -0.129 -0.768 -0.129 -1.534 0 -2.429 0.128 -0.768 0.255 -1.536 0.511 -2.302 0.384 -0.639 0.768 -1.408 1.279 -2.047 0.512 -0.511 1.024 -1.15 1.663 -1.662l1.918 -1.152c0.768 -0.254 1.534 -0.511 2.302 -0.638h2.558c0.767 0.128 1.534 0.384 2.301 0.639l1.918 1.151c0.639 0.512 1.152 1.151 1.663 1.662 0.512 0.639 0.895 1.408 1.151 2.047 0.384 0.767 0.512 1.534 0.639 2.301 0.128 0.384 0.128 0.896 0.128 1.279 0 3.069 2.558 5.627 5.755 5.627 3.069 0 5.626 -2.558 5.626 -5.626 0.001 -7.547 -4.22 -14.708 -10.869 -18.16 -6.778 -3.454 -15.346 -3.197 -21.357 1.407a20.87 20.87 0 0 0 -2.558 2.174c-0.895 0.768 -1.534 1.663 -2.302 2.558 -1.15 1.535 -1.789 3.197 -2.558 4.86 -1.534 3.709 -1.534 8.057 -0.767 11.894a19.393 19.393 0 0 0 2.558 6.01zm37.727 25.577a19.393 19.393 0 0 0 -2.558 -6.01c-0.512 -0.895 -1.024 -1.534 -1.791 -2.174 -1.407 -1.408 -2.685 -2.813 -4.093 -4.093l-1.789 -1.791c-2.302 -2.174 -5.884 -2.301 -8.185 0 -2.175 2.175 -2.175 5.884 0 8.057 2.174 2.046 4.22 4.093 6.267 6.139 0.255 0.384 0.384 0.767 0.639 1.151a9.919 9.919 0 0 1 0.639 2.301v2.43c-0.129 0.768 -0.384 1.534 -0.639 2.302 -0.384 0.639 -0.768 1.407 -1.152 2.045 -0.511 0.513 -1.15 1.152 -1.661 1.536 -0.641 0.511 -1.408 0.895 -2.047 1.278 -0.768 0.256 -1.535 0.384 -2.302 0.639h-2.429c-0.768 -0.255 -1.535 -0.384 -2.302 -0.639 -0.768 -0.384 -1.407 -0.767 -2.046 -1.279 -0.639 -0.384 -1.152 -1.022 -1.663 -1.534 -0.384 -0.639 -0.895 -1.407 -1.151 -2.046 -0.255 -0.768 -0.512 -1.535 -0.639 -2.302 0 -0.384 -0.128 -0.895 -0.128 -1.279 0 -3.069 -2.558 -5.626 -5.626 -5.626 -3.071 0 -5.756 2.557 -5.756 5.626 0.128 7.545 4.221 14.707 10.998 18.16 6.651 3.452 15.218 3.197 21.357 -1.408 0.895 -0.639 1.663 -1.407 2.558 -2.174 0.768 -0.768 1.534 -1.663 2.175 -2.558 1.15 -1.534 1.918 -3.197 2.558 -4.86 1.534 -3.709 1.662 -8.056 0.767 -11.893z" data-paper-data="{&amp;quot;glyphName&amp;quot;:&amp;quot;S&amp;quot;,&amp;quot;glyphIndex&amp;quot;:2,&amp;quot;word&amp;quot;:1}" style="fill:#3b0dca"/><path d="M344.009 350.231c0.512 0.896 1.151 1.535 1.791 2.175 1.407 1.407 2.813 2.685 4.092 4.092 0.639 0.639 1.279 1.279 1.918 1.791 2.174 2.174 5.882 2.302 8.057 0 2.174 -2.175 2.174 -5.882 0 -8.057 -2.046 -2.046 -4.221 -4.092 -6.267 -6.139 -0.128 -0.384 -0.384 -0.767 -0.639 -1.15 -0.256 -0.639 -0.384 -1.535 -0.512 -2.302 -0.128 -0.768 -0.128 -1.534 0 -2.429 0.128 -0.768 0.255 -1.536 0.512 -2.302 0.384 -0.639 0.768 -1.408 1.279 -2.047 0.512 -0.511 1.022 -1.15 1.663 -1.662l1.918 -1.152c0.767 -0.254 1.534 -0.511 2.301 -0.638h2.558c0.768 0.128 1.535 0.384 2.302 0.639l1.918 1.151c0.639 0.512 1.151 1.151 1.662 1.662 0.512 0.639 0.896 1.408 1.152 2.047 0.383 0.767 0.511 1.534 0.638 2.301 0.129 0.384 0.129 0.896 0.129 1.279 0 3.069 2.558 5.627 5.755 5.627 3.068 0 5.626 -2.558 5.626 -5.626 0 -7.547 -4.22 -14.708 -10.87 -18.16 -6.778 -3.454 -15.346 -3.197 -21.356 1.407a20.87 20.87 0 0 0 -2.558 2.174c-0.896 0.768 -1.535 1.663 -2.302 2.558 -1.151 1.535 -1.791 3.197 -2.558 4.86 -1.534 3.709 -1.534 8.057 -0.768 11.894a19.393 19.393 0 0 0 2.559 6.01zm37.726 25.577a19.393 19.393 0 0 0 -2.558 -6.01c-0.512 -0.895 -1.022 -1.534 -1.791 -2.174 -1.407 -1.408 -2.685 -2.813 -4.092 -4.093l-1.791 -1.791c-2.302 -2.174 -5.882 -2.301 -8.185 0 -2.174 2.175 -2.174 5.884 0 8.057 2.175 2.046 4.221 4.093 6.267 6.139 0.255 0.384 0.384 0.767 0.639 1.151a9.919 9.919 0 0 1 0.639 2.301v2.43c-0.128 0.768 -0.384 1.534 -0.639 2.302 -0.384 0.639 -0.768 1.407 -1.151 2.045 -0.512 0.513 -1.151 1.152 -1.662 1.536 -0.639 0.511 -1.408 0.895 -2.047 1.278 -0.767 0.256 -1.534 0.384 -2.301 0.639h-2.43c-0.768 -0.255 -1.534 -0.384 -2.302 -0.639 -0.767 -0.384 -1.407 -0.767 -2.045 -1.279 -0.641 -0.384 -1.152 -1.022 -1.664 -1.534 -0.384 -0.639 -0.895 -1.407 -1.15 -2.046 -0.256 -0.768 -0.512 -1.535 -0.639 -2.302 0 -0.384 -0.129 -0.895 -0.129 -1.279 0 -3.069 -2.558 -5.626 -5.626 -5.626 -3.069 0 -5.756 2.557 -5.756 5.626 0.129 7.545 4.221 14.707 10.999 18.16 6.65 3.452 15.217 3.197 21.357 -1.408 0.895 -0.639 1.662 -1.407 2.558 -2.174a20.988 20.988 0 0 0 2.174 -2.558c1.151 -1.534 1.918 -3.197 2.558 -4.86 1.534 -3.709 1.663 -8.056 0.768 -11.893z" data-paper-data="{&amp;quot;glyphName&amp;quot;:&amp;quot;S&amp;quot;,&amp;quot;glyphIndex&amp;quot;:3,&amp;quot;word&amp;quot;:1}" style="fill:#3b0dca"/><path d="M430.46 393.841s-13.812 -65.35 -14.707 -70.082c-0.128 -0.255 -0.128 -0.384 -0.255 -0.639 -0.512 -2.429 -3.069 -4.22 -5.499 -4.22 -2.302 0 -4.988 1.791 -5.499 4.22 -0.767 4.093 -10.486 49.621 -11.254 53.33 0 0.384 -0.128 0.767 -0.128 1.022 -0.384 1.535 -0.255 3.069 0.512 4.348 0.768 1.279 2.046 2.302 3.452 2.685 2.813 0.768 6.394 -0.895 7.035 -3.964 0.767 -4.092 1.662 -8.185 2.558 -12.277 0 -0.129 0 -0.256 0.128 -0.384v-0.384c1.022 -5.115 1.918 -9.207 2.174 -9.975 0.639 -2.941 1.535 -2.941 2.175 0 0 0 0.895 4.093 2.045 9.591 0.513 2.302 1.025 4.605 1.28 6.14 0.255 1.022 0.512 2.045 0.639 3.068 0.639 2.942 1.279 5.627 1.791 7.93 0.512 2.942 -1.407 5.371 -4.349 5.371h-17.392c-3.197 0 -5.755 2.558 -5.755 5.627a5.731 5.731 0 0 0 5.755 5.755h29.797c1.535 0 3.069 -0.639 4.093 -1.662 1.534 -1.535 1.918 -3.581 1.407 -5.499z" data-paper-data="{&amp;quot;glyphName&amp;quot;:&amp;quot;A&amp;quot;,&amp;quot;glyphIndex&amp;quot;:4,&amp;quot;lastGlyphOfWord&amp;quot;:true,&amp;quot;word&amp;quot;:1}" style="fill:#3b0dca"/></g><g data-paper-data="{&amp;quot;fillRule&amp;quot;:&amp;quot;evenodd&amp;quot;,&amp;quot;fillRuleOriginal&amp;quot;:&amp;quot;evenodd&amp;quot;,&amp;quot;isIcon&amp;quot;:true,&amp;quot;iconStyle&amp;quot;:&amp;quot;standalone&amp;quot;,&amp;quot;selectedEffects&amp;quot;:{&amp;quot;container&amp;quot;:&amp;quot;&amp;quot;,&amp;quot;transformation&amp;quot;:&amp;quot;&amp;quot;,&amp;quot;pattern&amp;quot;:&amp;quot;&amp;quot;},&amp;quot;bounds&amp;quot;:{&amp;quot;x&amp;quot;:228.39843983484477,&amp;quot;y&amp;quot;:115.00000000000003,&amp;quot;width&amp;quot;:93.2031203303105,&amp;quot;height&amp;quot;:135.9773896885273},&amp;quot;iconType&amp;quot;:&amp;quot;icon&amp;quot;,&amp;quot;rawIconId&amp;quot;:&amp;quot;fb29cefa-d030-4cfb-bb25-3a4323990702&amp;quot;,&amp;quot;isDetailed&amp;quot;:false,&amp;quot;suitableAsStandaloneIcon&amp;quot;:true}" fill-rule="evenodd"><path d="M353.39 139.846c6.62 6.62 9.93 14.605 9.93 23.956 0 7.866 -2.781 14.58 -8.344 20.143 -2.787 2.786 -5.872 4.876 -9.256 6.268 3.485 4.783 5.228 10.287 5.228 16.514 0 7.865 -2.781 14.579 -8.344 20.142 -5.562 5.562 -12.276 8.342 -20.141 8.342h-4.719c5.363 5.502 8.045 12.116 8.045 19.84 0 7.865 -2.781 14.579 -8.343 20.142 -5.563 5.562 -12.276 8.342 -20.142 8.342 -10.839 0 -20.094 -3.837 -27.769 -11.512 -7.673 -7.673 -11.511 -16.929 -11.511 -27.767v-32.129c0 -1.828 0.142 -3.626 0.427 -5.4a34.001 34.001 0 0 1 -0.427 -5.399v-32.129c0 -10.839 3.838 -20.094 11.512 -27.769 7.673 -7.673 16.929 -11.511 27.769 -11.511h32.129c9.351 0 17.336 3.31 23.955 9.928zm-4.606 4.607c-5.348 -5.347 -11.798 -8.021 -19.349 -8.021h-32.129c-9.04 0 -16.761 3.202 -23.163 9.603 -6.402 6.403 -9.603 14.124 -9.603 23.163v32.129c0 1.64 0.14 3.25 0.423 4.827 0.068 0.382 0.068 0.764 0 1.146a27.397 27.397 0 0 0 -0.423 4.826v32.129c0 9.04 3.2 16.761 9.603 23.162 6.402 6.403 14.122 9.604 23.162 9.604 6.067 0 11.245 -2.145 15.535 -6.435 4.291 -4.29 6.436 -9.468 6.436 -15.535 0 -6.067 -2.146 -11.246 -6.436 -15.536a23.835 23.835 0 0 0 -2.995 -2.551 3.228 3.228 0 0 1 -1.003 -1.16 3.248 3.248 0 0 1 -0.362 -1.49v-2.36a3.238 3.238 0 0 1 0.384 -1.535 3.226 3.226 0 0 1 0.808 -0.983 3.273 3.273 0 0 1 1.747 -0.723c0.106 -0.011 0.212 -0.016 0.32 -0.016h10.726c6.067 0 11.244 -2.145 15.534 -6.435 4.291 -4.29 6.436 -9.468 6.436 -15.535 0 -6.067 -2.145 -11.246 -6.435 -15.536 -0.102 -0.102 -0.203 -0.201 -0.305 -0.299a3.257 3.257 0 0 1 1.643 -5.539c4.154 -0.808 7.831 -2.813 11.034 -6.015 4.29 -4.291 6.435 -9.469 6.435 -15.536 0 -7.552 -2.674 -14.002 -8.021 -19.349zm-51.479 5.54h32.129c7.614 0 13.81 6.194 13.81 13.809a8.41 8.41 0 0 1 -16.263 3.01h-29.675c-1.294 0 -2.385 1.092 -2.385 2.386v29.12h27.543a8.41 8.41 0 0 1 0 16.818h-27.543v29.12c0 1.294 1.091 2.386 2.385 2.386a8.41 8.41 0 0 1 0 16.818c-10.589 0 -19.203 -8.615 -19.203 -19.204v-32.129c0 -1.915 0.393 -3.739 1.101 -5.4a13.723 13.723 0 0 1 -1.101 -5.399v-32.129c0 -10.589 8.614 -19.204 19.203 -19.204z"  style="fill:#3b0dca"/></g></g></svg>